<svg xmlns="http://www.w3.org/2000/svg" width="24" height="28" viewBox="0 0 24 28" fill="none">
  <path d="M20.85 15.43C20.2653 14.8496 19.8009 14.1596 19.4835 13.3994C19.166 12.6392 19.0017 11.8238 19 11V7C19 5.14348 18.2625 3.36301 16.9497 2.05025C15.637 0.737498 13.8565 0 12 0C10.1435 0 8.36301 0.737498 7.05025 2.05025C5.7375 3.36301 5 5.14348 5 7V11C5.00226 11.8289 4.83989 12.6499 4.52231 13.4155C4.20474 14.1812 3.73828 14.8761 3.15 15.46C2.15199 16.4561 1.3601 17.6391 0.819599 18.9415C0.279099 20.2438 0.000592082 21.6399 0 23.05C0.0106479 23.6244 0.185976 24.1836 0.505147 24.6612C0.824317 25.1388 1.27391 25.5148 1.80049 25.7444C2.32707 25.974 2.9085 26.0475 3.47567 25.9564C4.04285 25.8652 4.57191 25.6131 5 25.23C5.56652 25.5822 6.18868 25.8358 6.84 25.98C7.23495 26.0602 7.63698 26.1004 8.04 26.1H8.31C8.73843 26.6908 9.30071 27.1716 9.95079 27.5032C10.6009 27.8348 11.3202 28.0077 12.05 28.0077C12.7798 28.0077 13.4991 27.8348 14.1492 27.5032C14.7993 27.1716 15.3616 26.6908 15.79 26.1H16.16C16.563 26.1004 16.965 26.0602 17.36 25.98C17.9921 25.8398 18.5969 25.5966 19.15 25.26C19.5768 25.6195 20.0969 25.8506 20.6498 25.9263C21.2027 26.0021 21.7658 25.9195 22.2736 25.6881C22.7814 25.4567 23.2132 25.086 23.5188 24.619C23.8244 24.1521 23.9912 23.608 24 23.05C24.0034 21.6349 23.7268 20.2331 23.1862 18.9253C22.6455 17.6176 21.8516 16.4297 20.85 15.43ZM6.14 23.59L6.39 23.21C6.44703 23.1386 6.52254 23.0842 6.60831 23.0527C6.69408 23.0213 6.78684 23.0139 6.87651 23.0314C6.96618 23.0489 7.04934 23.0907 7.11695 23.1521C7.18456 23.2136 7.23403 23.2924 7.26 23.38L7.39 24.05H7.21C6.83187 23.9524 6.47098 23.7973 6.14 23.59ZM16.89 24H16.61L16.74 23.32C16.766 23.2324 16.8154 23.1536 16.8831 23.0921C16.9507 23.0307 17.0338 22.9889 17.1235 22.9714C17.2132 22.9539 17.3059 22.9613 17.3917 22.9927C17.4775 23.0242 17.553 23.0786 17.61 23.15L17.89 23.57C17.5818 23.766 17.2442 23.9111 16.89 24ZM21.05 24C20.893 23.9977 20.7388 23.9585 20.5999 23.8855C20.4609 23.8125 20.341 23.7079 20.25 23.58L19.25 22.1C18.9773 21.6936 18.5905 21.3771 18.1382 21.1901C17.686 21.0031 17.1885 20.9541 16.7085 21.0493C16.2285 21.1444 15.7873 21.3795 15.4406 21.7248C15.0939 22.0702 14.8571 22.5104 14.76 22.99L14.59 23.86C14.4711 24.4648 14.1458 25.0095 13.6697 25.4011C13.1936 25.7926 12.5964 26.0067 11.98 26.0067C11.3636 26.0067 10.7664 25.7926 10.2903 25.4011C9.81425 25.0095 9.48895 24.4648 9.37 23.86L9.22 23C9.12293 22.5204 8.88612 22.0802 8.53939 21.7348C8.19266 21.3895 7.75151 21.1544 7.27148 21.0593C6.79145 20.9641 6.294 21.0131 5.84176 21.2001C5.38951 21.3871 5.00269 21.7036 4.73 22.11L3.73 23.59C3.64518 23.707 3.536 23.8043 3.40997 23.8751C3.28395 23.9459 3.14408 23.9885 3 24C2.74322 24.0003 2.49616 23.9019 2.31 23.725C2.12384 23.5481 2.01284 23.3065 2 23.05C1.99484 21.8976 2.21946 20.7558 2.66073 19.6912C3.10201 18.6267 3.75108 17.6608 4.57 16.85C5.34005 16.0828 5.95109 15.1711 6.36808 14.1672C6.78507 13.1633 6.99982 12.087 7 11V7C7 5.67392 7.52678 4.40215 8.46447 3.46447C9.40215 2.52678 10.6739 2 12 2C13.3261 2 14.5979 2.52678 15.5355 3.46447C16.4732 4.40215 17 5.67392 17 7V11C16.9962 12.0921 17.209 13.1741 17.6261 14.1834C18.0433 15.1926 18.6564 16.1092 19.43 16.88C20.2453 17.6872 20.8923 18.6483 21.3335 19.7074C21.7746 20.7665 22.0012 21.9027 22 23.05C21.9879 23.298 21.8839 23.5327 21.7083 23.7083C21.5327 23.8839 21.298 23.9879 21.05 24Z" fill="#381F28"></path>
</svg>