<svg xmlns="http://www.w3.org/2000/svg" width="32" height="32" viewBox="0 0 32 32" fill="none">
  <path d="M19.3125 3.31274C19.3125 1.48624 17.8265 0.000244141 16 0.000244141C14.1735 0.000244141 12.6875 1.48624 12.6875 3.31274C12.6875 5.13924 14.1735 6.62524 16 6.62524C17.8265 6.62524 19.3125 5.13924 19.3125 3.31274ZM16 4.75024C15.2074 4.75024 14.5625 4.10537 14.5625 3.31274C14.5625 2.52012 15.2074 1.87524 16 1.87524C16.7926 1.87524 17.4375 2.52012 17.4375 3.31274C17.4375 4.10537 16.7926 4.75024 16 4.75024Z" fill="#381F28"></path>
  <path d="M24.4344 17.8749C24.4344 16.8785 24.4344 11.2139 24.4344 10.353C24.4344 8.29736 22.762 6.625 20.7064 6.625C19.5627 6.625 12.4362 6.625 11.2876 6.625C9.23193 6.625 7.55957 8.29736 7.55957 10.353V17.8749C7.55957 19.4257 8.82125 20.6874 10.372 20.6874H11.3095V29.1248C11.3095 30.6756 12.5712 31.9373 14.122 31.9373H17.872C19.4228 31.9373 20.6845 30.6756 20.6845 29.1248V20.6874H21.622C23.1728 20.6874 24.4344 19.4257 24.4344 17.8749ZM11.2876 8.49999H20.7064C21.7282 8.49999 22.5595 9.33123 22.5595 10.353V15.0624H20.6845V11.3125C20.6845 10.7947 20.2647 10.375 19.747 10.375C19.2292 10.375 18.8095 10.7947 18.8095 11.3125V16.9374H13.1845C13.1845 16.0327 13.1845 12.023 13.1845 11.3125C13.1845 10.7947 12.7648 10.375 12.247 10.375C11.7293 10.375 11.3095 10.7947 11.3095 11.3125V15.0624H9.43456V10.353C9.43456 9.33123 10.2658 8.49999 11.2876 8.49999ZM9.43456 17.8749V16.9374H11.3095V18.8124H10.372C9.85511 18.8124 9.43456 18.3918 9.43456 17.8749ZM13.1845 29.1248C13.1844 28.738 13.1831 19.2001 13.1845 18.8124H15.0626V30.0623H14.122C13.6051 30.0623 13.1845 29.6418 13.1845 29.1248ZM18.8095 29.1248C18.8095 29.6418 18.3889 30.0623 17.872 30.0623H16.9376V18.8124H18.8095C18.8109 19.2004 18.8096 28.7365 18.8095 29.1248ZM20.6845 16.9374H22.5595V17.8749C22.5595 18.3918 22.1389 18.8124 21.622 18.8124H20.6845C20.6845 16.6944 20.6916 19.032 20.6845 16.9374Z" fill="#381F28"></path>
  <path d="M6.95999 3.45658C7.32974 4.01277 8.14955 4.01595 8.52143 3.45658L9.07043 2.63083L9.61943 3.45658C9.90605 3.88777 10.488 4.00489 10.9192 3.71827C11.3504 3.43164 11.4675 2.8497 11.1809 2.41852L9.85118 0.418517C9.48168 -0.137295 8.66155 -0.140733 8.2898 0.418517L7.74086 1.2442L7.19199 0.41858C6.90537 -0.0126078 6.32349 -0.129733 5.89224 0.15683C5.46105 0.443455 5.34387 1.02539 5.63049 1.45658L6.95999 3.45658Z" fill="#381F28"></path>
  <path d="M4.47503 8.80725L4.34928 7.82362L5.3049 8.08825C5.80409 8.22656 6.32047 7.93387 6.45859 7.43494C6.59678 6.93594 6.30428 6.41937 5.80528 6.28125L3.49078 5.64031C2.84747 5.46231 2.22547 5.99644 2.31065 6.66269L2.4364 7.64619L1.48097 7.38156C0.981716 7.24344 0.465404 7.53581 0.327216 8.03475C0.189029 8.53375 0.481466 9.05031 0.980404 9.1885L3.29484 9.82962C3.94197 10.0088 4.55959 9.46906 4.47503 8.80725Z" fill="#381F28"></path>
  <path d="M5.56099 23.0584L4.7838 22.4425L5.65237 21.9642C6.10587 21.7143 6.27105 21.1442 6.0213 20.6907C5.77155 20.2372 5.20137 20.072 4.74787 20.3218L2.64412 21.4804C2.05918 21.8026 1.98824 22.6197 2.51412 23.0364L3.29124 23.6522L2.4228 24.1304C1.57943 24.5948 1.90568 25.8893 2.87587 25.8893C3.2923 25.8893 3.35599 25.7157 5.43093 24.6145C6.01599 24.2923 6.08693 23.4751 5.56099 23.0584Z" fill="#381F28"></path>
  <path d="M9.28442 26.6084C9.00611 26.1719 8.42648 26.0436 7.98992 26.3219L5.96486 27.6132C5.40211 27.972 5.38298 28.7919 5.93498 29.1743L6.75005 29.7389L5.91411 30.2719C5.47755 30.5502 5.34923 31.1298 5.62755 31.5664C5.90642 32.0038 6.48617 32.1307 6.92205 31.8529L8.94711 30.5619C9.5098 30.2032 9.52911 29.3833 8.97705 29.0007L8.16192 28.436L8.99805 27.9029C9.43455 27.6246 9.5628 27.0449 9.28442 26.6084Z" fill="#381F28"></path>
  <path d="M21.0816 3.71831C21.5128 4.005 22.0948 3.88781 22.3814 3.45662L22.9304 2.63087L23.4794 3.45662C23.849 4.01244 24.669 4.01587 25.0408 3.45662L26.3703 1.45662C26.657 1.02544 26.5398 0.443561 26.1086 0.156873C25.6774 -0.129752 25.0955 -0.0126266 24.8088 0.418623L24.26 1.24425L23.711 0.418561C23.3415 -0.137252 22.5214 -0.140689 22.1496 0.418561L20.82 2.41856C20.5333 2.84969 20.6505 3.43162 21.0816 3.71831Z" fill="#381F28"></path>
  <path d="M31.6735 8.03454C31.5354 7.5356 31.0191 7.2431 30.5198 7.38135L29.5644 7.64597L29.6901 6.66247C29.7749 5.9996 29.1564 5.46147 28.51 5.6401L26.1954 6.2811C25.6964 6.41929 25.4039 6.93585 25.5421 7.43479C25.6802 7.93373 26.1967 8.22623 26.6957 8.0881L27.6514 7.82348L27.5256 8.8071C27.4409 9.46998 28.0601 10.0083 28.7058 9.82941L31.0202 9.18829C31.5194 9.05004 31.8118 8.53354 31.6735 8.03454Z" fill="#381F28"></path>
  <path d="M29.5773 24.1302L28.7089 23.652L29.486 23.0362C30.0093 22.6216 29.9439 21.804 29.356 21.4802L27.2522 20.3216C26.7988 20.0718 26.2286 20.237 25.9788 20.6905C25.729 21.144 25.8942 21.7142 26.3477 21.964L27.2163 22.4423L26.4391 23.0582C25.9157 23.4729 25.9812 24.2904 26.5692 24.6142L28.6729 25.7726C29.1289 26.0237 29.6979 25.8548 29.9464 25.4036C30.1961 24.9501 30.0309 24.38 29.5773 24.1302Z" fill="#381F28"></path>
  <path d="M26.0858 30.272L25.2499 29.739L26.0649 29.1743C26.6134 28.7943 26.6014 27.9743 26.0351 27.6132L24.01 26.322C23.5734 26.0435 22.9939 26.1719 22.7155 26.6084C22.4371 27.045 22.5654 27.6245 23.0019 27.9029L23.8381 28.436L23.0229 29.0008C22.4743 29.3809 22.4866 30.2009 23.0529 30.562C25.0197 31.7627 25.1114 32.0001 25.581 32.0001C26.5124 32.0001 26.8767 30.7762 26.0858 30.272Z" fill="#381F28"></path>
</svg>