<svg xmlns="http://www.w3.org/2000/svg" width="100%" height="100%" viewBox="0 0 30 32" fill="none" preserveAspectRatio="xMidYMid meet" aria-hidden="true" role="img">
  <path d="M25.5352 0C23.4846 0 21.8164 1.66819 21.8164 3.71875C21.8164 5.76931 23.4846 7.4375 25.5352 7.4375C27.5857 7.4375 29.2539 5.76931 29.2539 3.71875C29.2539 1.66819 27.5857 0 25.5352 0ZM25.5352 5.5625C24.5185 5.5625 23.6914 4.73538 23.6914 3.71875C23.6914 2.70212 24.5185 1.875 25.5352 1.875C26.5518 1.875 27.3789 2.70212 27.3789 3.71875C27.3789 4.73538 26.5518 5.5625 25.5352 5.5625Z" fill="currentColor"></path>
  <path d="M22.0548 20.5189C21.9962 20.1354 22.0565 20.4105 18.6551 15.4896L21.3458 12.4999C24.34 9.1729 22.8984 3.8934 18.7046 2.49565L14.0891 0.957155C12.2888 0.35703 10.3374 1.06697 9.34362 2.68365L6.73456 6.92772C6.03781 8.06115 6.34575 9.54678 7.43581 10.3098C8.55975 11.0966 10.1256 10.83 10.9257 9.71534L13.0992 6.68797L14.9187 7.35515L10.4851 12.5773C9.28762 13.9877 8.62812 15.7834 8.62812 17.6337V29.0143C8.62812 30.6213 9.91125 32 11.5739 32C13.0387 32 14.2827 30.9222 14.49 29.4708L15.4856 22.5015L16.501 23.865L17.6862 29.7115C17.9806 31.1637 19.3633 32.1616 20.8375 31.9781C22.4355 31.7793 23.5513 30.3038 23.3079 28.7125L22.0548 20.5189ZM12.6338 29.2056C12.5567 29.7452 12.0838 30.1439 11.538 30.1245C10.9674 30.106 10.5031 29.6079 10.5031 29.0143V17.6337C10.5031 16.2275 11.0044 14.8628 11.9144 13.7908L17.2178 7.54434C17.6393 7.04803 17.4379 6.28184 16.8259 6.0574L13.0759 4.6824C12.6822 4.53803 12.238 4.67247 11.9916 5.01584L9.40262 8.6219C9.19819 8.90672 8.79831 8.97478 8.51094 8.77372C8.2325 8.57878 8.15381 8.19928 8.33181 7.90965L10.9409 3.66559C11.476 2.79509 12.5267 2.41272 13.4962 2.73597L18.1117 4.27447C18.9016 4.53772 19.5939 5.02053 20.1139 5.67065H20.1141C21.4381 7.32565 21.3699 9.67028 19.9521 11.2456L14.4937 17.3104C14.3693 17.4487 14.2888 17.6208 14.2625 17.805L12.6338 29.2056ZM20.6061 30.1173C20.1011 30.1802 19.6251 29.8383 19.5239 29.339C18.1889 22.91 18.3529 23.2123 18.1301 22.9132C15.8172 19.814 15.9547 19.9775 15.8601 19.8806L16.0784 18.3526L17.3676 16.9201L20.2346 21.0187L21.4545 28.9958C21.5381 29.5425 21.1547 30.0491 20.6061 30.1173Z" fill="currentColor"></path>
  <path d="M5.69818 18.0326L4.8263 18.505L4.72805 17.5183C4.66193 16.8532 3.93799 16.4675 3.34855 16.7869L1.23711 17.9311C0.781863 18.1778 0.612863 18.7468 0.859488 19.202C1.10618 19.6571 1.67505 19.8263 2.13043 19.5796L3.00205 19.1073L3.1003 20.0939C3.16699 20.7641 3.89624 21.1416 4.47974 20.8253L6.59136 19.6811C7.04661 19.4345 7.21568 18.8655 6.96905 18.4103C6.72243 17.9551 6.15343 17.7859 5.69818 18.0326Z" fill="currentColor"></path>
  <path d="M7.20463 11.9092L5.11325 10.7283C4.53044 10.3991 3.79913 10.7709 3.72119 11.4355L3.60575 12.4202L2.74244 11.9327C2.29163 11.6782 1.71982 11.8372 1.46507 12.2881C1.2105 12.7389 1.36957 13.3108 1.82044 13.5654L3.91163 14.7463C4.491 15.0736 5.22538 14.7076 5.30375 14.0392L5.41919 13.0543L6.28269 13.5419C6.73363 13.7965 7.30544 13.6374 7.56 13.1864C7.81457 12.7356 7.6555 12.1637 7.20463 11.9092Z" fill="currentColor"></path>
</svg>