<svg xmlns="http://www.w3.org/2000/svg" width="30" height="32" viewBox="0 0 30 32" fill="none">
  <path d="M16.616 3.82725H12.1844V0.9375C12.1844 0.41975 11.7646 0 11.2469 0H7.49687C6.97912 0 6.55937 0.41975 6.55937 0.9375V4.76475C6.55937 7.35319 8.66219 9.45906 11.2469 9.45906C11.7655 9.45906 12.1875 9.881 12.1875 10.3997V14.1567C12.1875 17.7829 9.24356 20.7329 5.625 20.7329H3.75C2.19919 20.7329 0.9375 21.9962 0.9375 23.5489V31.0625C0.9375 31.5803 1.35725 32 1.875 32H5.62813C6.14588 32 6.56563 31.5803 6.56563 31.0625V26.6286L13.5965 28.3898C21.4537 30.3576 29.0625 24.408 29.0625 16.2948C29.0625 9.42019 23.4791 3.82725 16.616 3.82725ZM11.2469 7.58413C9.69606 7.58413 8.43437 6.31937 8.43437 4.76481V1.875H10.3094V4.76475C10.3094 5.2825 10.7291 5.70225 11.2469 5.70225H16.616C21.3456 5.70225 25.3595 8.8305 26.7056 13.1304C25.7746 12.6661 24.5454 12.25 23.125 12.25C20.1813 12.25 19.0657 14.125 16.5625 14.125C15.4893 14.125 14.5981 13.8366 14.0625 13.5814V10.3997C14.0625 8.84719 12.7994 7.58413 11.2469 7.58413ZM14.0521 26.5709L5.85588 24.5178C5.26375 24.3696 4.69056 24.8182 4.69056 25.4272V30.125H2.8125V23.5489C2.8125 23.0301 3.23306 22.6079 3.75 22.6079H5.625C9.80206 22.6079 13.2793 19.5517 13.9464 15.5547C14.6136 15.7914 15.5021 16 16.5625 16C19.6191 16 20.7603 14.125 23.125 14.125C25.1423 14.125 26.7169 15.2718 27.1665 15.6365C27.6089 22.8311 20.9536 28.2999 14.0521 26.5709Z" fill="#381F28"></path>
  <path d="M16.4377 21.1402C16.7241 20.7089 16.6065 20.1272 16.1752 19.8408C15.7439 19.5545 15.1622 19.672 14.8759 20.1033C14.5895 20.5346 14.7071 21.1164 15.1384 21.4027C15.5697 21.689 16.1514 21.5715 16.4377 21.1402Z" fill="#381F28"></path>
  <path d="M19.3944 21.9751C18.9248 22.1933 18.7209 22.7507 18.939 23.2203C19.1571 23.6899 19.7146 23.8938 20.1842 23.6757C20.6538 23.4576 20.8577 22.9001 20.6396 22.4305C20.4215 21.9609 19.864 21.7571 19.3944 21.9751Z" fill="#381F28"></path>
  <path d="M20.3661 17.3894C19.8965 17.6076 19.6926 18.165 19.9107 18.6346C20.1288 19.1042 20.6863 19.3081 21.1559 19.09C21.6255 18.8719 21.8294 18.3144 21.6113 17.8448C21.3932 17.3752 20.8357 17.1714 20.3661 17.3894Z" fill="black"></path>
</svg>