<svg xmlns="http://www.w3.org/2000/svg" width="32" height="32" viewBox="0 0 32 32" fill="none">
  <path d="M24.75 24.5H21.2968C23.2111 22.9519 24.4375 20.5854 24.4375 17.9375V9.12499C24.4375 6.06974 20.7141 4.55343 18.7221 6.67643C18.1012 6.06549 17.2503 5.68755 16.3125 5.68755H11C9.10456 5.68755 7.5625 7.22962 7.5625 9.12505V17.9376C7.5625 20.5855 8.78894 22.952 10.7032 24.5001H7.25C5.35456 24.5001 3.8125 26.0421 3.8125 27.9376V31.0626C3.8125 31.5803 4.23225 32.0001 4.75 32.0001H27.2499C27.7677 32.0001 28.1874 31.5803 28.1874 31.0626V27.9376C28.1874 26.0421 26.6454 24.5 24.75 24.5ZM19.75 8.81255C19.75 8.1233 20.3108 7.56255 21 7.56255C21.8616 7.56255 22.5625 8.26349 22.5625 9.12505V11.3126H21.9375C20.7313 11.3126 19.75 10.3312 19.75 9.12505V8.81255ZM9.4375 9.12505C9.4375 8.26349 10.1384 7.56255 11 7.56255H16.3125C17.1741 7.56255 17.875 8.26349 17.875 9.12505C17.875 10.3312 16.8937 11.3126 15.6875 11.3126H9.4375V9.12505ZM9.4375 17.9376V13.1876H15.6875C16.9428 13.1876 18.0667 12.6151 18.8125 11.7177C20.3006 13.5082 22.3201 13.1414 22.5625 13.1876V17.9376C22.5625 21.5561 19.6186 24.5001 16 24.5001C12.3814 24.5001 9.4375 21.5561 9.4375 17.9376ZM5.6875 30.125V27.9375C5.6875 27.0759 6.38844 26.375 7.25 26.375H10.5985L12.5722 30.125H5.6875ZM14.691 30.125L12.7173 26.375H19.2827L17.309 30.125H14.691ZM26.3125 30.125H19.4278L21.4015 26.375H24.75C25.6116 26.375 26.3125 27.0759 26.3125 27.9375V30.125Z" fill="#381F28"></path>
  <path d="M15.9971 17.5625C14.4463 17.5625 13.1846 18.8242 13.1846 20.375C13.1846 20.8928 13.6043 21.3125 14.1221 21.3125C14.6398 21.3125 15.0596 20.8928 15.0596 20.375C15.0596 19.8581 15.4801 19.4375 16.0002 19.4375C16.5171 19.4375 16.9377 19.8581 16.9377 20.375C16.9377 20.8928 17.3574 21.3125 17.8752 21.3125C18.3929 21.3125 18.8127 20.8928 18.8127 20.375C18.8127 18.8242 17.551 17.5625 15.9971 17.5625Z" fill="#381F28"></path>
  <path d="M6.959 3.45656C7.33894 4.02806 8.15843 4.00106 8.52043 3.45656L9.06944 2.63081L9.61844 3.45656C9.90506 3.88775 10.487 4.00488 10.9182 3.71825C11.3494 3.43163 11.4665 2.84969 11.1799 2.4185L9.85018 0.418502C9.48068 -0.137311 8.66056 -0.140748 8.28881 0.418502L7.73987 1.24419L7.191 0.418564C6.90437 -0.0126234 6.3225 -0.129748 5.89125 0.156877C5.46006 0.443502 5.34287 1.02544 5.62956 1.45663L6.959 3.45656Z" fill="#381F28"></path>
  <path d="M4.76724 6.42939C5.17311 6.75083 5.76274 6.68245 6.08424 6.27658C6.40574 5.8707 6.3373 5.28108 5.93142 4.95958L4.04874 3.46845C3.52555 3.05408 2.74461 3.30408 2.56374 3.95095L2.2968 4.90589L1.51967 4.29026C1.1138 3.96876 0.524175 4.03714 0.202675 4.44295C-0.118825 4.84876 -0.0504503 5.43845 0.355362 5.75995L2.23786 7.2512C2.76111 7.66564 3.54211 7.41551 3.72292 6.76876L3.98986 5.81376L4.76724 6.42939Z" fill="#381F28"></path>
  <path d="M21.0816 3.71831C21.5128 4.005 22.0947 3.88781 22.3814 3.45663L22.9304 2.63088L23.4794 3.45663C23.8489 4.01244 24.669 4.01588 25.0408 3.45663L26.3703 1.45663C26.6569 1.02544 26.5398 0.443564 26.1086 0.156877C25.6774 -0.129748 25.0956 -0.0126234 24.8089 0.418564L24.26 1.24419L23.7111 0.418502C23.3416 -0.137311 22.5214 -0.140748 22.1497 0.418502L20.82 2.4185C20.5333 2.84969 20.6504 3.43163 21.0816 3.71831Z" fill="#381F28"></path>
  <path d="M31.797 4.44295C31.4754 4.03714 30.8859 3.96877 30.48 4.29027L29.7029 4.90589L29.4359 3.95096C29.2563 3.30821 28.4773 3.05145 27.9509 3.46845L26.0683 4.95964C25.6624 5.28114 25.5941 5.87077 25.9155 6.27664C26.237 6.68258 26.8267 6.75096 27.2325 6.42946L28.0098 5.81377L28.2768 6.76877C28.4564 7.41158 29.2354 7.6682 29.7618 7.2512L31.6443 5.75995C32.0501 5.43852 32.1185 4.84883 31.797 4.44295Z" fill="#381F28"></path>
</svg>