<svg xmlns="http://www.w3.org/2000/svg" width="32" height="32" viewBox="0 0 32 32" fill="none">
  <path d="M17.7233 7.30957H0.937496C0.419748 7.30957 0 7.72932 0 8.24707V19.7838C0 20.2728 0.375874 20.6796 0.863309 20.7183C6.89229 21.1969 10.5372 19.1291 14.0753 18.1894C11.6245 23.3877 13.0409 27.0296 13.4617 31.0304L13.4746 31.1558C13.5225 31.6351 13.9259 32 14.4074 32C14.4139 32 20.1876 31.989 20.1975 31.989C20.6627 31.9881 21.0569 31.6463 21.1236 31.1859L23.5995 14.0985C24.1183 10.5171 21.3375 7.30957 17.7233 7.30957ZM21.7438 13.8295L19.3841 30.1155L15.2426 30.1234C14.6835 25.8164 13.4655 22.605 16.65 17.3622L17.3316 17.1432C17.8246 16.9848 18.0958 16.4568 17.9374 15.9639C17.7791 15.4709 17.2511 15.1997 16.7581 15.3581C9.98202 17.3105 7.15435 19.0909 1.87499 18.8991V9.18456H17.7232C20.1992 9.18456 22.0984 11.3822 21.7438 13.8295Z" fill="#381F28"></path>
  <path d="M17.7236 11.0596C17.2059 11.0596 16.7861 11.4793 16.7861 11.9971C16.7861 12.5148 17.2059 12.9346 17.7236 12.9346C17.8678 12.9346 17.9959 13.0361 18.0282 13.1761C18.1443 13.6798 18.6469 13.9956 19.1523 13.8791C19.6568 13.7628 19.9716 13.2595 19.8553 12.7549C19.6251 11.7567 18.7486 11.0596 17.7236 11.0596Z" fill="#381F28"></path>
  <path d="M26.4849 6.85748L26.7519 7.81242C26.9325 8.45886 27.7135 8.70942 28.2369 8.29492L30.9281 6.1633C31.334 5.8418 31.4024 5.25217 31.0809 4.8463C30.7594 4.44042 30.1697 4.37198 29.7639 4.69348L28.178 5.94961L27.911 4.99461C27.7313 4.35148 26.9522 4.09536 26.426 4.51217L23.8359 6.56405C23.43 6.88555 23.3617 7.47523 23.6832 7.88105C24.0047 8.28692 24.5943 8.3553 25.0002 8.03374L26.4849 6.85748Z" fill="#381F28"></path>
  <path d="M19.0951 5.8715C19.5548 6.11394 20.1211 5.93569 20.3617 5.4795L21.2452 3.804L21.875 4.56981C22.2989 5.08531 23.115 5.00575 23.4283 4.41169L25.0298 1.37494C25.2713 0.916936 25.0959 0.349873 24.6379 0.108373C24.1799 -0.133002 23.6129 0.0423107 23.3713 0.500311L22.4276 2.28981L21.7978 1.52387C21.3741 1.00862 20.5577 1.08794 20.2444 1.68206L18.7031 4.605C18.4616 5.06294 18.6371 5.63 19.0951 5.8715Z" fill="#381F28"></path>
  <path d="M31.1704 13.441L29.1607 13.2078L29.6472 12.3438C29.9748 11.762 29.605 11.0298 28.9383 10.9526L25.6559 10.5719C25.1414 10.5128 24.6763 10.8808 24.6167 11.3952C24.5571 11.9095 24.9256 12.3748 25.4399 12.4344L27.3215 12.6527L26.8351 13.5166C26.5071 14.099 26.878 14.8305 27.5439 14.9078L30.9542 15.3035C31.4675 15.3632 31.9337 14.9953 31.9935 14.4803C32.0532 13.966 31.6847 13.5007 31.1704 13.441Z" fill="black"></path>
</svg>