<svg xmlns="http://www.w3.org/2000/svg" width="32" height="32" viewBox="0 0 32 32" fill="none">
  <path d="M29.1063 6.87753L31.7254 4.25847C32.0915 3.89234 32.0915 3.29878 31.7254 2.93266L29.0673 0.274594C28.7012 -0.0915312 28.1076 -0.0915312 27.7415 0.274594C24.8253 3.18847 25.0902 2.92497 24.9961 3.01534C21.4244 6.36016 14.1355 1.97922 8.07678 8.03803C1.98866 14.1262 6.48353 21.3207 2.93241 25.0837L0.274594 27.7415C-0.0915312 28.1077 -0.0915312 28.7012 0.274594 29.0673L2.93266 31.7254C3.29872 32.0915 3.89234 32.0916 4.25847 31.7254C7.22091 28.7652 6.94803 29.0368 7.04291 28.9457C10.62 25.5985 17.9321 30.0418 24.0063 23.9675C25.5707 22.403 26.5772 20.6097 27.0833 18.4849C28.1993 13.7995 26.5157 9.62278 29.1063 6.87753ZM11.5738 24.41L24.4488 11.535C23.2772 14.6203 22.2559 17.1546 19.7246 19.6858C17.216 22.1945 14.6998 23.2235 11.5738 24.41ZM20.4233 7.59284L7.63159 20.3845C8.83584 17.2676 9.86666 14.8113 12.3584 12.3196C14.852 9.82597 17.347 8.78009 20.4233 7.59284ZM9.40266 9.36384C12.2223 6.54416 15.3611 6.39516 18.4188 6.36334C16.054 7.31247 13.4892 8.53716 11.0327 10.9938C8.57603 13.4504 7.35128 16.0151 6.40222 18.3798C6.43403 15.3222 6.58297 12.1835 9.40266 9.36384ZM3.59559 29.7367L2.26334 28.4044C3.05822 27.6095 27.1625 3.50528 28.4044 2.26334L29.7367 3.59559C28.8528 4.47947 5.13441 28.1978 3.59559 29.7367ZM22.6805 22.6417C19.8657 25.4564 16.7205 25.5974 13.6556 25.6182C16.0275 24.68 18.5975 23.4647 21.0505 21.0116C23.5035 18.5586 24.7189 15.9887 25.6571 13.6167C25.6362 16.6818 25.4952 19.8269 22.6805 22.6417Z" fill="#381F28"></path>
  <path d="M31.4537 25.3837L30.5502 24.796L31.3702 24.2388C31.9226 23.8635 31.9172 23.0434 31.3546 22.6775L29.2789 21.3273C28.845 21.045 28.2642 21.1679 27.9818 21.602C27.6995 22.036 27.8225 22.6167 28.2566 22.899L29.1502 23.4803L28.3301 24.0377C27.7781 24.4127 27.7827 25.2328 28.3458 25.599L30.4316 26.9555C30.8639 27.2366 31.4451 27.1167 31.7286 26.6808C32.0108 26.2467 31.8878 25.666 31.4537 25.3837Z" fill="#381F28"></path>
  <path d="M25.7814 25.9749C25.5716 25.5015 25.0177 25.2878 24.5444 25.4976C24.0711 25.7074 23.8574 26.2612 24.0671 26.7346L24.4991 27.7092L23.5078 27.7289C22.8404 27.7422 22.3971 28.4321 22.6693 29.0461L23.6776 31.3207C23.8874 31.794 24.4411 32.0077 24.9145 31.7979C25.3879 31.5881 25.6015 31.0343 25.3917 30.5609L24.9549 29.5755L25.9462 29.5558C26.6134 29.5425 27.0568 28.8528 26.7847 28.2386L25.7814 25.9749Z" fill="#381F28"></path>
  <path d="M6.44859 3.70193C6.81197 4.2608 7.63178 4.27424 8.0099 3.71761L8.56722 2.89736L9.14853 3.79111C9.42947 4.22293 10.0095 4.34949 10.4456 4.0658C10.8796 3.78349 11.0026 3.20274 10.7203 2.76874L9.37009 0.693052C9.00653 0.134114 8.18697 0.120677 7.80878 0.677427L7.25159 1.49755L6.6639 0.593927C6.38159 0.159864 5.80078 0.036927 5.3669 0.319177C4.93284 0.601489 4.80984 1.18218 5.09215 1.61624L6.44859 3.70193Z" fill="#381F28"></path>
  <path d="M0.72673 8.37049L3.00135 9.37874C3.61373 9.65018 4.30535 9.20874 4.3186 8.5403L4.33829 7.54893L5.31292 7.98086C5.78623 8.19061 6.34004 7.97699 6.54992 7.50361C6.75967 7.03024 6.54598 6.47643 6.07267 6.26668L3.80886 5.26336C3.19686 4.99211 2.50492 5.43274 2.49167 6.1018L2.47198 7.09311L1.4866 6.6563C1.01317 6.44668 0.459355 6.66005 0.249605 7.13349C0.0397924 7.6068 0.253417 8.16068 0.72673 8.37049Z" fill="#381F28"></path>
</svg>