<svg xmlns="http://www.w3.org/2000/svg" width="28" height="32" viewBox="0 0 28 32" fill="none">
  <path d="M16.1445 5.65625C16.1445 2.53737 13.6072 0 10.4883 0C7.36941 0 4.83203 2.53737 4.83203 5.65625C4.83203 8.77513 7.36941 11.3125 10.4883 11.3125C13.6072 11.3125 16.1445 8.77513 16.1445 5.65625ZM10.4883 9.4375C8.40328 9.4375 6.70703 7.74125 6.70703 5.65625C6.70703 3.57125 8.40328 1.875 10.4883 1.875C12.5733 1.875 14.2695 3.57125 14.2695 5.65625C14.2695 7.74125 12.5733 9.4375 10.4883 9.4375Z" fill="#381F28"></path>
  <path d="M17.2383 11.3125C16.4905 11.3125 4.51384 11.3125 3.76491 11.3125C1.78584 11.3125 0.175781 12.9226 0.175781 14.9016C0.175781 16.8917 1.64541 17.7438 2.05078 18.2633V31.0625C2.05078 31.5803 2.47053 32 2.98828 32H19.8633C20.381 32 20.8008 31.5803 20.8008 31.0625V14.875C20.8008 12.9106 19.2026 11.3125 17.2383 11.3125ZM2.55284 16.1138C1.47572 15.0365 2.24778 13.1875 3.76491 13.1875H11.9718L8.57391 16.5854L6.33166 14.5821C5.94559 14.2371 5.35291 14.2706 5.00791 14.6566C4.66297 15.0427 4.69634 15.6354 5.08241 15.9804L7.98553 18.5741C8.35641 18.9054 8.92147 18.8896 9.27303 18.5379L13.3198 14.4911C13.7261 14.0849 14.3907 14.0812 14.8013 14.4829C15.2209 14.8932 15.2247 15.5659 14.8097 15.9809L9.94334 20.8472C9.21078 21.5797 8.01884 21.5797 7.28634 20.8472L2.55284 16.1138ZM18.9258 30.125H17.0508V19.75C17.0508 19.2322 16.631 18.8125 16.1133 18.8125C15.5955 18.8125 15.1758 19.2322 15.1758 19.75V30.125H3.92578V20.1383L5.96053 22.1731C7.42741 23.64 9.80203 23.6403 11.2692 22.1731L16.1355 17.3067C17.2721 16.1701 17.2804 14.3333 16.1575 13.1875H17.2383C18.1688 13.1875 18.9258 13.9445 18.9258 14.875V30.125Z" fill="#381F28"></path>
  <path d="M22.2725 5.39994C21.822 5.14482 21.2499 5.30326 20.9948 5.75388L20.5064 6.61663L19.8998 5.83226C19.4914 5.30407 18.6731 5.35982 18.3424 5.94382L17.159 8.03369C16.9039 8.48426 17.0623 9.05632 17.5129 9.31144C17.9623 9.56594 18.5349 9.40913 18.7906 8.95757L19.2792 8.09469L19.8859 8.87913C20.2948 9.40801 21.113 9.35088 21.4433 8.76751L22.6265 6.67763C22.8815 6.22707 22.723 5.65501 22.2725 5.39994Z" fill="#381F28"></path>
  <path d="M27.809 12.8517C27.7148 12.3425 27.2257 12.006 26.7166 12.1003L25.7417 12.2807L25.9527 11.3119C26.0948 10.6591 25.5258 10.0689 24.8661 10.1906L22.5045 10.6274C21.9953 10.7216 21.659 11.2107 21.7531 11.7198C21.8473 12.2289 22.3364 12.5652 22.8455 12.4712L23.8206 12.2908L23.6096 13.2597C23.4675 13.9125 24.0372 14.5032 24.6962 14.381L27.0577 13.944C27.5669 13.8498 27.9032 13.3608 27.809 12.8517Z" fill="#381F28"></path>
</svg>