<svg xmlns="http://www.w3.org/2000/svg" width="32" height="32" viewBox="0 0 32 32" fill="none">
  <path d="M16.0003 2.66675C8.64833 2.66675 2.66699 8.64808 2.66699 16.0001C2.66699 23.3521 8.64833 29.3334 16.0003 29.3334C23.3523 29.3334 29.3337 23.3521 29.3337 16.0001C29.3337 8.64808 23.3523 2.66675 16.0003 2.66675ZM16.0003 26.6667C10.119 26.6667 5.33366 21.8814 5.33366 16.0001C5.33366 10.1187 10.119 5.33341 16.0003 5.33341C21.8817 5.33341 26.667 10.1187 26.667 16.0001C26.667 21.8814 21.8817 26.6667 16.0003 26.6667Z" fill="#381F28"></path>
  <path d="M16.0003 24.0001C18.2095 24.0001 20.0003 22.5077 20.0003 20.6667C20.0003 18.8258 18.2095 17.3334 16.0003 17.3334C13.7912 17.3334 12.0003 18.8258 12.0003 20.6667C12.0003 22.5077 13.7912 24.0001 16.0003 24.0001Z" fill="#381F28"></path>
  <path d="M13.3337 9.33342C9.46033 9.33342 8.02299 12.5147 8.00033 14.6534L10.667 14.6814C10.6697 14.4054 10.7683 12.0001 13.3337 12.0001V9.33342ZM18.667 9.33342V12.0001C21.1017 12.0001 21.323 14.0494 21.3337 14.6761L22.667 14.6667H24.0003C24.0003 12.5227 22.5803 9.33342 18.667 9.33342Z" fill="#381F28"></path>
</svg>