<?xml version="1.0" standalone="no"?>
<!DOCTYPE svg PUBLIC "-//W3C//DTD SVG 20010904//EN"
 "http://www.w3.org/TR/2001/REC-SVG-20010904/DTD/svg10.dtd">
<svg version="1.0" xmlns="http://www.w3.org/2000/svg"
 width="102.000000pt" height="97.000000pt" viewBox="0 0 102.000000 97.000000"
 preserveAspectRatio="xMidYMid meet">
<metadata>
Created by potrace 1.10, written by Peter Selinger 2001-2011
</metadata>
<g transform="translate(0.000000,97.000000) scale(0.100000,-0.100000)"
fill="#fff" stroke="fff">
<path d="M416 840 c-298 -106 -376 -471 -146 -683 74 -69 147 -99 251 -105 79
-4 189 18 189 38 0 13 -3 13 -61 -6 -72 -24 -187 -15 -261 18 -143 66 -228
197 -228 353 0 208 154 371 361 383 178 10 336 -98 389 -267 44 -140 12 -273
-94 -388 -25 -28 -33 -43 -23 -43 8 0 31 18 50 40 184 203 118 526 -130 643
-90 42 -207 48 -297 17z"/>
<path d="M556 754 c-7 -18 3 -64 14 -64 4 0 10 10 14 23 8 31 7 39 -4 32 -6
-3 -7 1 -4 9 3 9 2 16 -4 16 -5 0 -13 -7 -16 -16z"/>
<path d="M602 710 c-20 -23 -35 -30 -62 -30 l-35 0 0 -170 0 -170 31 0 32 0
-3 142 c-1 79 1 153 4 165 3 13 22 31 41 41 19 9 36 25 38 35 5 26 -17 20 -46
-13z m-52 -110 c0 -49 -4 -70 -12 -70 -9 0 -13 21 -13 70 0 49 4 70 13 70 8 0
12 -21 12 -70z m0 -176 c0 -51 -4 -74 -11 -72 -7 2 -11 30 -11 71 1 83 0 77
12 77 6 0 10 -32 10 -76z"/>
<path d="M340 541 c0 -13 13 -24 41 -35 l41 -17 -4 -74 -3 -75 30 0 31 0 0 85
0 85 -33 0 c-21 0 -41 9 -57 25 -30 30 -46 32 -46 6z m120 -122 c0 -93 -21
-90 -24 4 -1 48 3 67 12 67 8 0 12 -21 12 -71z"/>
<path d="M702 535 c-19 -16 -42 -25 -63 -25 l-34 0 0 -85 0 -85 37 0 c36 0 37
1 28 26 -11 28 -13 78 -4 110 4 14 16 24 34 28 16 3 34 14 39 25 17 31 -4 34
-37 6z m-52 -115 c0 -49 -4 -70 -13 -70 -8 0 -12 20 -12 70 0 49 4 70 13 70 8
0 12 -21 12 -70z"/>
<path d="M415 246 l0 -85 35 4 c19 1 34 5 33 9 -11 35 -13 101 -5 126 11 30
11 30 -26 30 l-37 0 0 -84z m47 4 c-5 -96 -27 -96 -27 0 0 56 3 70 15 70 12 0
14 -13 12 -70z"/>
<path d="M507 248 c1 -77 3 -82 22 -81 50 2 49 1 38 43 -8 28 -8 52 0 80 l10
40 -36 0 -36 0 2 -82z m43 2 c0 -49 -4 -70 -12 -70 -9 0 -13 21 -13 70 0 49 4
70 13 70 8 0 12 -21 12 -70z"/>
<path d="M605 251 l0 -79 30 -5 c39 -6 47 0 35 23 -13 24 -13 96 0 121 10 17
7 19 -27 19 l-38 0 0 -79z m45 -1 c0 -49 -4 -70 -12 -70 -9 0 -13 21 -13 70 0
49 4 70 13 70 8 0 12 -21 12 -70z"/>
</g>
</svg>
